<svg width="17" height="17" viewBox="0 0 17 17" fill="none" xmlns="http://www.w3.org/2000/svg">
<path d="M5.9334 16.336H3.98437C2.15156 16.336 0.664062 14.8485 0.664062 13.0156V3.98439C0.664062 2.15158 2.15156 0.664076 3.98437 0.664076H5.9334C4.10723 0.664076 2.68945 2.15158 2.68945 3.98439V13.0156C2.68945 14.8485 4.10723 16.336 5.9334 16.336ZM11.8037 6.80001L12.4312 3.96115C12.5906 3.16095 12.9857 2.42384 13.5635 1.84611L14.7389 0.670717C14.2375 0.624233 13.7195 0.793569 13.3344 1.17872L11.3057 3.20744C10.7279 3.78517 10.3328 4.52228 10.1734 5.32247L9.79492 7.20509L11.6775 6.8299C11.7174 6.81994 11.7605 6.80998 11.8037 6.80001Z" fill="#CEE1F2"/>
<path d="M9.92773 17H3.98437C1.78633 17 0 15.2137 0 13.0156V3.98438C0 1.78633 1.78633 0 3.98437 0H10.0605C10.4258 0 10.7246 0.298828 10.7246 0.664062C10.7246 1.0293 10.4258 1.32812 10.0605 1.32812H3.98437C2.52012 1.32812 1.32812 2.52012 1.32812 3.98438V13.0156C1.32812 14.4799 2.52012 15.6719 3.98437 15.6719H9.92773C11.392 15.6719 12.584 14.4799 12.584 13.0156V9.03125C12.584 8.66602 12.8828 8.36719 13.248 8.36719C13.6133 8.36719 13.9121 8.66602 13.9121 9.03125V13.0156C13.9121 15.2137 12.1258 17 9.92773 17ZM9.92441 7.85586L11.807 7.48066C12.74 7.29473 13.59 6.83984 14.2607 6.16582L16.2894 4.13711C17.2357 3.19082 17.2357 1.65352 16.2894 0.710547C15.3432 -0.235742 13.8059 -0.235742 12.8629 0.710547L10.8342 2.73926C10.1602 3.41328 9.70859 4.25996 9.51933 5.19297L9.14414 7.07559C9.10097 7.29473 9.16738 7.51719 9.32676 7.67656C9.45293 7.80273 9.62226 7.87246 9.79492 7.87246C9.83808 7.86914 9.88125 7.86582 9.92441 7.85586ZM15.3531 1.6502C15.559 1.85605 15.6752 2.13164 15.6752 2.42383C15.6752 2.71602 15.5623 2.9916 15.3531 3.19746L13.3244 5.22617C12.8363 5.71426 12.2221 6.04297 11.548 6.17578L10.6416 6.35508L10.8209 5.44863C10.957 4.77461 11.2857 4.16035 11.7705 3.67227L13.7992 1.64355C14.0051 1.4377 14.2807 1.32148 14.5728 1.32148C14.865 1.32148 15.1439 1.44102 15.3531 1.6502Z" fill="#3444F1"/>
<path d="M10.5918 11.6875H3.35352C2.98828 11.6875 2.68945 11.3887 2.68945 11.0234C2.68945 10.6582 2.98828 10.3594 3.35352 10.3594H10.5918C10.957 10.3594 11.2559 10.6582 11.2559 11.0234C11.2559 11.3887 10.9604 11.6875 10.5918 11.6875ZM7.00586 12.8496C6.54766 12.8496 6.17578 13.2215 6.17578 13.6797C6.17578 14.1379 6.54766 14.5098 7.00586 14.5098C7.46406 14.5098 7.83594 14.1379 7.83594 13.6797C7.83594 13.2215 7.46406 12.8496 7.00586 12.8496Z" fill="#000"/>
</svg>
